<mxfile host="app.diagrams.net" modified="2024-03-22T19:26:05.038Z" agent="Mozilla/5.0 (Windows NT 10.0; Win64; x64) AppleWebKit/537.36 (KHTML, like Gecko) Chrome/123.0.0.0 Safari/537.36" etag="5cRqUYSFdN10cB6Y2J-4" version="24.0.8" type="github" pages="2">
  <diagram name="Página-1" id="3NIjhlgy2YTikS_V9KKs">
    <mxGraphModel dx="1862" dy="945" grid="1" gridSize="10" guides="1" tooltips="1" connect="1" arrows="1" fold="1" page="1" pageScale="1" pageWidth="291" pageHeight="413" math="0" shadow="0">
      <root>
        <mxCell id="0" />
        <mxCell id="1" parent="0" />
        <mxCell id="s-yuEmEmYm-1q9ebvQfU-1" value="REGISTRO USUARIO" style="swimlane;whiteSpace=wrap;html=1;strokeWidth=0.5;" vertex="1" parent="1">
          <mxGeometry x="-390" y="-380" width="190" height="470" as="geometry" />
        </mxCell>
        <mxCell id="s-yuEmEmYm-1q9ebvQfU-10" value="registrar usuario" style="ellipse;whiteSpace=wrap;html=1;" vertex="1" parent="s-yuEmEmYm-1q9ebvQfU-1">
          <mxGeometry x="10" y="50" width="170" height="50" as="geometry" />
        </mxCell>
        <mxCell id="s-yuEmEmYm-1q9ebvQfU-9" value="crear/ingresar contraseña" style="ellipse;whiteSpace=wrap;html=1;" vertex="1" parent="s-yuEmEmYm-1q9ebvQfU-1">
          <mxGeometry x="15" y="110" width="160" height="50" as="geometry" />
        </mxCell>
        <mxCell id="s-yuEmEmYm-1q9ebvQfU-16" value="verificar especialidad" style="ellipse;whiteSpace=wrap;html=1;" vertex="1" parent="s-yuEmEmYm-1q9ebvQfU-1">
          <mxGeometry x="20" y="170" width="160" height="56.5" as="geometry" />
        </mxCell>
        <mxCell id="s-yuEmEmYm-1q9ebvQfU-23" value="ingresar correo" style="ellipse;whiteSpace=wrap;html=1;" vertex="1" parent="s-yuEmEmYm-1q9ebvQfU-1">
          <mxGeometry x="15" y="240" width="170" height="50" as="geometry" />
        </mxCell>
        <mxCell id="s-yuEmEmYm-1q9ebvQfU-34" value="crear username" style="ellipse;whiteSpace=wrap;html=1;" vertex="1" parent="s-yuEmEmYm-1q9ebvQfU-1">
          <mxGeometry x="17.5" y="300" width="155" height="60" as="geometry" />
        </mxCell>
        <mxCell id="s-yuEmEmYm-1q9ebvQfU-28" style="edgeStyle=orthogonalEdgeStyle;rounded=0;orthogonalLoop=1;jettySize=auto;html=1;exitX=0.5;exitY=0.5;exitDx=0;exitDy=0;exitPerimeter=0;entryX=1;entryY=0.5;entryDx=0;entryDy=0;strokeWidth=1;strokeColor=#3333FF;" edge="1" parent="1" source="s-yuEmEmYm-1q9ebvQfU-2" target="s-yuEmEmYm-1q9ebvQfU-23">
          <mxGeometry relative="1" as="geometry">
            <Array as="points">
              <mxPoint x="-65" y="-100" />
              <mxPoint x="-145" y="-100" />
              <mxPoint x="-145" y="-45" />
            </Array>
          </mxGeometry>
        </mxCell>
        <mxCell id="s-yuEmEmYm-1q9ebvQfU-31" style="edgeStyle=orthogonalEdgeStyle;rounded=0;orthogonalLoop=1;jettySize=auto;html=1;exitX=0.5;exitY=0.5;exitDx=0;exitDy=0;exitPerimeter=0;entryX=1;entryY=0.5;entryDx=0;entryDy=0;strokeColor=#3333FF;strokeWidth=1;" edge="1" parent="1" source="s-yuEmEmYm-1q9ebvQfU-2" target="s-yuEmEmYm-1q9ebvQfU-9">
          <mxGeometry relative="1" as="geometry" />
        </mxCell>
        <mxCell id="s-yuEmEmYm-1q9ebvQfU-36" style="edgeStyle=orthogonalEdgeStyle;rounded=0;orthogonalLoop=1;jettySize=auto;html=1;exitX=0.5;exitY=0.5;exitDx=0;exitDy=0;exitPerimeter=0;entryX=1;entryY=0.5;entryDx=0;entryDy=0;fillColor=#dae8fc;strokeColor=#0000CC;" edge="1" parent="1" source="s-yuEmEmYm-1q9ebvQfU-2" target="s-yuEmEmYm-1q9ebvQfU-34">
          <mxGeometry relative="1" as="geometry">
            <Array as="points">
              <mxPoint x="-65" y="-20" />
              <mxPoint x="-150" y="-20" />
              <mxPoint x="-150" y="30" />
            </Array>
          </mxGeometry>
        </mxCell>
        <mxCell id="s-yuEmEmYm-1q9ebvQfU-2" value="TÉCNICO/SISTEMA" style="shape=umlActor;verticalLabelPosition=bottom;verticalAlign=top;html=1;outlineConnect=0;" vertex="1" parent="1">
          <mxGeometry x="-80" y="-140" width="30" height="60" as="geometry" />
        </mxCell>
        <mxCell id="s-yuEmEmYm-1q9ebvQfU-12" style="edgeStyle=orthogonalEdgeStyle;rounded=0;orthogonalLoop=1;jettySize=auto;html=1;exitX=0.5;exitY=0.5;exitDx=0;exitDy=0;exitPerimeter=0;entryX=0;entryY=0.5;entryDx=0;entryDy=0;strokeWidth=1;strokeColor=#9be886;fillColor=#cdeb8b;" edge="1" parent="1" source="s-yuEmEmYm-1q9ebvQfU-3" target="s-yuEmEmYm-1q9ebvQfU-10">
          <mxGeometry relative="1" as="geometry">
            <Array as="points">
              <mxPoint x="-400" y="-220" />
              <mxPoint x="-400" y="-305" />
            </Array>
          </mxGeometry>
        </mxCell>
        <mxCell id="s-yuEmEmYm-1q9ebvQfU-32" style="edgeStyle=orthogonalEdgeStyle;rounded=0;orthogonalLoop=1;jettySize=auto;html=1;exitX=0.5;exitY=0.5;exitDx=0;exitDy=0;exitPerimeter=0;entryX=0;entryY=0.5;entryDx=0;entryDy=0;fillColor=#d5e8d4;strokeColor=#9be886;" edge="1" parent="1" source="s-yuEmEmYm-1q9ebvQfU-3" target="s-yuEmEmYm-1q9ebvQfU-9">
          <mxGeometry relative="1" as="geometry">
            <mxPoint x="-430" y="-180" as="targetPoint" />
          </mxGeometry>
        </mxCell>
        <mxCell id="s-yuEmEmYm-1q9ebvQfU-3" value="TUTOR&amp;nbsp;&lt;div&gt;&lt;br&gt;&lt;/div&gt;" style="shape=umlActor;verticalLabelPosition=bottom;verticalAlign=top;html=1;outlineConnect=0;" vertex="1" parent="1">
          <mxGeometry x="-582" y="-250" width="30" height="60" as="geometry" />
        </mxCell>
        <mxCell id="s-yuEmEmYm-1q9ebvQfU-20" style="edgeStyle=orthogonalEdgeStyle;rounded=0;orthogonalLoop=1;jettySize=auto;html=1;exitX=0.5;exitY=0.5;exitDx=0;exitDy=0;exitPerimeter=0;entryX=0;entryY=0.5;entryDx=0;entryDy=0;strokeWidth=0.5;fillColor=#1ba1e2;strokeColor=#006EAF;" edge="1" parent="1">
          <mxGeometry relative="1" as="geometry">
            <mxPoint x="-567" y="-315" as="sourcePoint" />
            <mxPoint x="-375" y="-250" as="targetPoint" />
            <Array as="points">
              <mxPoint x="-567" y="-300" />
              <mxPoint x="-410" y="-300" />
              <mxPoint x="-410" y="-250" />
            </Array>
          </mxGeometry>
        </mxCell>
        <mxCell id="s-yuEmEmYm-1q9ebvQfU-26" style="edgeStyle=orthogonalEdgeStyle;rounded=0;orthogonalLoop=1;jettySize=auto;html=1;exitX=0.5;exitY=0.5;exitDx=0;exitDy=0;exitPerimeter=0;entryX=0;entryY=0.5;entryDx=0;entryDy=0;strokeWidth=0.5;fillColor=#1ba1e2;strokeColor=#006EAF;" edge="1" parent="1" source="s-yuEmEmYm-1q9ebvQfU-4" target="s-yuEmEmYm-1q9ebvQfU-23">
          <mxGeometry relative="1" as="geometry">
            <Array as="points">
              <mxPoint x="-460" y="-310" />
              <mxPoint x="-460" y="-45" />
            </Array>
          </mxGeometry>
        </mxCell>
        <mxCell id="s-yuEmEmYm-1q9ebvQfU-4" value="USUARIO&lt;div&gt;&lt;br&gt;&lt;/div&gt;" style="shape=umlActor;verticalLabelPosition=bottom;verticalAlign=top;html=1;outlineConnect=0;" vertex="1" parent="1">
          <mxGeometry x="-582" y="-340" width="30" height="60" as="geometry" />
        </mxCell>
        <mxCell id="s-yuEmEmYm-1q9ebvQfU-13" style="edgeStyle=orthogonalEdgeStyle;rounded=0;orthogonalLoop=1;jettySize=auto;html=1;exitX=0.5;exitY=0.5;exitDx=0;exitDy=0;exitPerimeter=0;entryX=1;entryY=0.5;entryDx=0;entryDy=0;strokeWidth=0.5;strokeColor=#7e21b0;" edge="1" parent="1" source="s-yuEmEmYm-1q9ebvQfU-7" target="s-yuEmEmYm-1q9ebvQfU-10">
          <mxGeometry relative="1" as="geometry" />
        </mxCell>
        <mxCell id="s-yuEmEmYm-1q9ebvQfU-7" value="ESPECIALISTA" style="shape=umlActor;verticalLabelPosition=bottom;verticalAlign=top;html=1;outlineConnect=0;" vertex="1" parent="1">
          <mxGeometry x="-50" y="-335" width="30" height="60" as="geometry" />
        </mxCell>
        <mxCell id="s-yuEmEmYm-1q9ebvQfU-11" style="edgeStyle=orthogonalEdgeStyle;rounded=0;orthogonalLoop=1;jettySize=auto;html=1;exitX=0.5;exitY=0.5;exitDx=0;exitDy=0;exitPerimeter=0;entryX=0;entryY=0.4;entryDx=0;entryDy=0;entryPerimeter=0;strokeWidth=0.5;fillColor=#1ba1e2;strokeColor=#006EAF;" edge="1" parent="1" source="s-yuEmEmYm-1q9ebvQfU-4" target="s-yuEmEmYm-1q9ebvQfU-10">
          <mxGeometry relative="1" as="geometry" />
        </mxCell>
        <mxCell id="s-yuEmEmYm-1q9ebvQfU-15" style="edgeStyle=orthogonalEdgeStyle;rounded=0;orthogonalLoop=1;jettySize=auto;html=1;exitX=0.5;exitY=0.5;exitDx=0;exitDy=0;exitPerimeter=0;entryX=1.002;entryY=0.652;entryDx=0;entryDy=0;entryPerimeter=0;strokeWidth=1;strokeColor=#3333FF;" edge="1" parent="1" source="s-yuEmEmYm-1q9ebvQfU-2" target="s-yuEmEmYm-1q9ebvQfU-10">
          <mxGeometry relative="1" as="geometry" />
        </mxCell>
        <mxCell id="s-yuEmEmYm-1q9ebvQfU-21" style="edgeStyle=orthogonalEdgeStyle;rounded=0;orthogonalLoop=1;jettySize=auto;html=1;exitX=0.5;exitY=0.5;exitDx=0;exitDy=0;exitPerimeter=0;entryX=0.999;entryY=0.656;entryDx=0;entryDy=0;entryPerimeter=0;strokeWidth=1;strokeColor=#7e21b0;" edge="1" parent="1" source="s-yuEmEmYm-1q9ebvQfU-7" target="s-yuEmEmYm-1q9ebvQfU-16">
          <mxGeometry relative="1" as="geometry" />
        </mxCell>
        <mxCell id="s-yuEmEmYm-1q9ebvQfU-25" style="edgeStyle=orthogonalEdgeStyle;rounded=0;orthogonalLoop=1;jettySize=auto;html=1;exitX=0.5;exitY=0.5;exitDx=0;exitDy=0;exitPerimeter=0;entryX=-0.004;entryY=0.61;entryDx=0;entryDy=0;entryPerimeter=0;strokeWidth=1;strokeColor=#52d72d;fillColor=#dae8fc;" edge="1" parent="1" source="s-yuEmEmYm-1q9ebvQfU-3" target="s-yuEmEmYm-1q9ebvQfU-23">
          <mxGeometry relative="1" as="geometry" />
        </mxCell>
        <mxCell id="s-yuEmEmYm-1q9ebvQfU-27" style="edgeStyle=orthogonalEdgeStyle;rounded=0;orthogonalLoop=1;jettySize=auto;html=1;exitX=0.5;exitY=0.5;exitDx=0;exitDy=0;exitPerimeter=0;entryX=1.002;entryY=0.624;entryDx=0;entryDy=0;entryPerimeter=0;strokeWidth=1;strokeColor=#7e21b0;" edge="1" parent="1" source="s-yuEmEmYm-1q9ebvQfU-7" target="s-yuEmEmYm-1q9ebvQfU-23">
          <mxGeometry relative="1" as="geometry" />
        </mxCell>
        <mxCell id="s-yuEmEmYm-1q9ebvQfU-29" value="" style="triangle;whiteSpace=wrap;html=1;fillColor=#cce5ff;strokeColor=#36393d;" vertex="1" parent="1">
          <mxGeometry x="-592" y="-315" width="10" height="10" as="geometry" />
        </mxCell>
      </root>
    </mxGraphModel>
  </diagram>
  <diagram id="QqYR1Xo4HJH_Mfy1MyGc" name="Página-2">
    <mxGraphModel dx="1434" dy="772" grid="1" gridSize="10" guides="1" tooltips="1" connect="1" arrows="1" fold="1" page="1" pageScale="1" pageWidth="291" pageHeight="413" math="0" shadow="0">
      <root>
        <mxCell id="0" />
        <mxCell id="1" parent="0" />
        <mxCell id="rRjtMzzRcwJRFk4WsjBS-1" value="Vertical Container" style="swimlane;whiteSpace=wrap;html=1;" vertex="1" parent="1">
          <mxGeometry x="40" y="140" width="380" height="610" as="geometry" />
        </mxCell>
        <mxCell id="rRjtMzzRcwJRFk4WsjBS-3" value="Actor" style="shape=umlActor;verticalLabelPosition=bottom;verticalAlign=top;html=1;outlineConnect=0;" vertex="1" parent="1">
          <mxGeometry x="130" y="360" width="30" height="60" as="geometry" />
        </mxCell>
        <mxCell id="rRjtMzzRcwJRFk4WsjBS-4" value="Actor" style="shape=umlActor;verticalLabelPosition=bottom;verticalAlign=top;html=1;outlineConnect=0;" vertex="1" parent="1">
          <mxGeometry x="130" y="360" width="30" height="60" as="geometry" />
        </mxCell>
        <mxCell id="rRjtMzzRcwJRFk4WsjBS-5" value="Actor" style="shape=umlActor;verticalLabelPosition=bottom;verticalAlign=top;html=1;outlineConnect=0;" vertex="1" parent="1">
          <mxGeometry x="130" y="360" width="30" height="60" as="geometry" />
        </mxCell>
        <mxCell id="rRjtMzzRcwJRFk4WsjBS-6" value="Actor" style="shape=umlActor;verticalLabelPosition=bottom;verticalAlign=top;html=1;outlineConnect=0;" vertex="1" parent="1">
          <mxGeometry x="130" y="360" width="30" height="60" as="geometry" />
        </mxCell>
      </root>
    </mxGraphModel>
  </diagram>
</mxfile>
